<svg width="32" height="35" viewBox="0 0 32 35" fill="none" xmlns="http://www.w3.org/2000/svg">
<g id="Highlight_05">
<path id="Vector" fill-rule="evenodd" clip-rule="evenodd" d="M9.91239 30.5479C7.19498 29.5448 4.31598 28.9178 1.52147 28.3308C0.919411 28.2065 0.32098 28.583 0.229881 29.1737C0.0953101 29.7614 0.486318 30.3401 1.04494 30.461C3.75366 31.0275 6.54704 31.6253 9.13648 32.5889C9.68811 32.7971 10.3234 32.5106 10.5434 31.9476C10.7634 31.3852 10.464 30.7565 9.91239 30.5479Z" fill="#FA9762"/>
<path id="Vector_2" fill-rule="evenodd" clip-rule="evenodd" d="M19.2264 20.1633C15.1186 15.2388 10.3989 10.8566 6.38778 5.81653C6.03196 5.34732 5.33885 5.26812 4.87169 5.64203C4.4045 6.01637 4.30604 6.70094 4.70529 7.17363C8.71536 12.2272 13.434 16.6224 17.5407 21.5604C17.9408 22.0226 18.6352 22.0845 19.1033 21.6988C19.5279 21.3101 19.6265 20.6256 19.2264 20.1633Z" fill="#FA9762"/>
<path id="Vector_3" fill-rule="evenodd" clip-rule="evenodd" d="M29.0183 3.27452C28.9391 5.89816 28.8595 8.52179 28.7802 11.1459C28.7322 11.7444 29.2166 12.2484 29.8271 12.2681C30.4376 12.2873 30.9125 11.8126 30.9606 11.2136C31.0402 8.58566 31.1201 5.95812 31.1997 3.33057C31.2043 2.72852 30.7197 2.22757 30.109 2.21137C29.5417 2.19866 29.0229 2.6729 29.0183 3.27452Z" fill="#FA9762"/>
</g>
</svg>
