<svg width="30" height="30" viewBox="0 0 30 30" fill="none" xmlns="http://www.w3.org/2000/svg">
<g id="Brands / linkedin">
<path id="Vector" d="M25.1643 3.00017H4.83627C4.60776 2.99699 4.38087 3.03886 4.16854 3.12339C3.95622 3.20791 3.76263 3.33343 3.59882 3.49278C3.43502 3.65213 3.3042 3.84219 3.21386 4.0521C3.12351 4.26201 3.0754 4.48766 3.07227 4.71617V25.2842C3.0754 25.5127 3.12351 25.7383 3.21386 25.9482C3.3042 26.1581 3.43502 26.3482 3.59882 26.5076C3.76263 26.6669 3.95622 26.7924 4.16854 26.8769C4.38087 26.9615 4.60776 27.0033 4.83627 27.0002H25.1643C25.3928 27.0033 25.6197 26.9615 25.832 26.8769C26.0443 26.7924 26.2379 26.6669 26.4017 26.5076C26.5655 26.3482 26.6963 26.1581 26.7867 25.9482C26.877 25.7383 26.9251 25.5127 26.9283 25.2842V4.71617C26.9251 4.48766 26.877 4.26201 26.7867 4.0521C26.6963 3.84219 26.5655 3.65213 26.4017 3.49278C26.2379 3.33343 26.0443 3.20791 25.832 3.12339C25.6197 3.03886 25.3928 2.99699 25.1643 3.00017ZM10.3083 23.0882H6.70827V12.2882H10.3083V23.0882ZM8.50827 10.7762C8.01178 10.7762 7.53563 10.5789 7.18456 10.2279C6.83349 9.8768 6.63627 9.40065 6.63627 8.90417C6.63627 8.40768 6.83349 7.93153 7.18456 7.58046C7.53563 7.2294 8.01178 7.03217 8.50827 7.03217C8.7719 7.00227 9.03888 7.02839 9.29172 7.10883C9.54455 7.18926 9.77755 7.3222 9.97545 7.49892C10.1734 7.67565 10.3317 7.89218 10.4401 8.13435C10.5485 8.37651 10.6046 8.63884 10.6046 8.90417C10.6046 9.16949 10.5485 9.43183 10.4401 9.67399C10.3317 9.91615 10.1734 10.1327 9.97545 10.3094C9.77755 10.4861 9.54455 10.6191 9.29172 10.6995C9.03888 10.7799 8.7719 10.8061 8.50827 10.7762ZM23.2923 23.0882H19.6923V17.2922C19.6923 15.8402 19.1763 14.8922 17.8683 14.8922C17.4635 14.8951 17.0693 15.0221 16.7389 15.256C16.4084 15.4898 16.1576 15.8194 16.0203 16.2002C15.9264 16.4822 15.8857 16.7793 15.9003 17.0762V23.0762H12.3003C12.3003 23.0762 12.3003 13.2602 12.3003 12.2762H15.9003V13.8002C16.2273 13.2327 16.703 12.7652 17.276 12.448C17.849 12.1308 18.4977 11.976 19.1523 12.0002C21.5523 12.0002 23.2923 13.5482 23.2923 16.8722V23.0882Z" fill="#3A47D0"/>
</g>
</svg>
