<svg width="104" height="165" viewBox="0 0 104 165" fill="none" xmlns="http://www.w3.org/2000/svg">
<path fill-rule="evenodd" clip-rule="evenodd" d="M74.1366 40.549C58.9563 42.6835 48.1512 51.44 37.2803 62.5222C35.4451 64.3938 31.1304 69.1239 28.874 73.716C27.2777 76.9627 26.7511 80.1517 28.5242 82.3317C30.0724 84.238 32.538 84.5647 35.3393 83.9122C41.4223 82.496 49.1489 76.4653 51.3512 74.4288C61.2681 65.2521 69.3079 53.8847 74.9014 41.5762C75.836 41.4573 76.7903 41.363 77.7625 41.2947C80.6917 41.0936 84.2006 41.1526 87.3753 41.9916C90.4608 42.8063 93.236 44.3578 94.7896 47.1755C98.0329 53.0539 96.2199 61.5116 92.3264 70.1491C91.4793 72.0322 90.5307 73.9206 89.5099 75.7964C88.107 76 86.6299 76.3602 85.1017 76.8527C73.245 80.6724 58.3207 92.2342 54.3326 96.2947C52.5569 98.1024 49.2446 101.385 47.7398 104.757C46.6632 107.168 46.4959 109.624 48.2165 111.691C49.7482 113.534 52.1308 113.8 54.8299 113.092C60.6579 111.564 68.0188 105.463 70.2846 103.337C75.4384 98.5064 84.0588 87.9828 90.2278 76.812C93.0579 76.4739 95.505 76.8695 97.2734 78.3627C99.7338 80.4388 100.015 84.1647 99.1812 88.4986C98.9292 89.8057 98.5754 91.167 98.1384 92.5533C98.0287 92.6087 97.9221 92.6644 97.8124 92.7199C89.0413 97.2293 80.1055 105.304 76.4843 109.205C74.8496 110.965 72.1103 114.359 70.9983 117.676C70.2065 120.044 70.2404 122.373 71.8764 124.134C73.5565 125.943 75.8492 125.677 78.1336 124.451C81.2486 122.775 84.3461 119.323 85.4879 118.033C88.7063 114.402 95.8237 103.246 99.0563 93.348C101.653 92.0715 104.222 91.1339 106.612 90.7599C109.134 90.3614 111.455 90.5903 113.374 91.7466C118.105 94.6031 118.223 100.559 116.344 107.051C115.771 109.028 115.01 111.054 114.122 113.063C111.927 112.898 109.442 113.387 106.88 114.339C100.845 116.584 94.363 121.373 90.365 125.769C88.9851 127.285 86.7421 130.038 85.9074 132.737C85.3027 134.689 85.4219 136.613 86.9275 138.111C88.7558 139.933 91.1127 139.928 93.4935 139.026C96.804 137.77 100.163 134.759 101.951 133.186C105.462 130.096 111.089 122.374 114.807 114.258C115.695 114.404 116.518 114.687 117.259 115.13C120.054 116.791 121.589 120.658 121.062 127.686C120.806 131.089 120.195 134.456 118.958 137.639C117.178 142.228 114.577 146.179 111.599 150.057C111.412 150.302 111.457 150.654 111.702 150.841C111.946 151.03 112.299 150.985 112.486 150.74C115.529 146.777 118.182 142.733 120.001 138.045C121.276 134.76 121.912 131.284 122.177 127.773C122.75 120.123 120.87 115.978 117.83 114.168C117.053 113.707 116.195 113.395 115.273 113.216C116.128 111.259 116.86 109.29 117.416 107.365C119.459 100.312 119.089 93.8915 113.949 90.7902C110.153 88.4998 104.918 89.4106 99.5037 91.8973C99.8167 90.8111 100.08 89.7465 100.278 88.714C101.203 83.9094 100.72 79.8096 97.9948 77.5089C96.179 75.9772 93.7136 75.4401 90.8602 75.6475C91.7544 73.9736 92.5906 72.2893 93.346 70.6096C97.4041 61.6041 99.1496 52.7671 95.7676 46.6361C94.3985 44.1536 92.1839 42.5451 89.6104 41.5415C85.8588 40.0835 81.3383 39.9282 77.6827 40.1809C76.9231 40.2328 76.1724 40.3009 75.4336 40.3853C76.0396 39.0045 76.6176 37.6131 77.1612 36.2108C78.5084 32.7431 79.9849 28.5201 80.3057 24.4034C80.5233 21.5906 80.2043 18.828 78.9704 16.3701C77.2071 12.8476 74.1346 11.2963 70.6928 10.8558C67.3628 10.4278 63.6832 11.0529 60.5759 11.884C46.9755 15.5212 34.9466 24.1456 28.8847 37.1478C28.7552 37.4255 28.8766 37.7581 29.1561 37.8901C29.4341 38.0204 29.7678 37.9016 29.8974 37.6207C35.8177 24.9225 47.5834 16.5164 60.8674 12.964C63.842 12.1669 67.3645 11.5558 70.5545 11.9636C73.6295 12.3587 76.3948 13.7183 77.9718 16.8676C79.4037 19.7244 79.4801 23.0273 78.9486 26.3031C78.4045 29.6574 77.2163 32.9846 76.119 35.8047C75.4982 37.4 74.8368 38.984 74.1366 40.549ZM113.633 114.144C111.691 114.074 109.515 114.552 107.272 115.387C101.395 117.572 95.0867 122.241 91.1928 126.522C89.8937 127.951 87.7589 130.528 86.9746 133.069C86.4983 134.61 86.5271 136.139 87.7145 137.322C89.211 138.81 91.1473 138.717 93.0963 137.98C96.2784 136.772 99.4924 133.858 101.212 132.345C104.6 129.362 109.995 121.968 113.633 114.144ZM97.6312 94.0774C89.2114 98.5826 80.7781 106.224 77.3022 109.968C75.7452 111.644 73.1167 114.871 72.0581 118.036C71.4028 119.989 71.3415 121.921 72.6938 123.374C74.0112 124.793 75.8111 124.428 77.6012 123.465C80.5933 121.857 83.5548 118.527 84.6518 117.29C87.6998 113.85 94.3194 103.53 97.6312 94.0774ZM88.8226 77.0329C87.7389 77.2404 86.6089 77.5425 85.4476 77.916C73.7639 81.6797 59.0595 93.0784 55.1307 97.0781C53.4193 98.8204 50.212 101.966 48.761 105.216C47.865 107.217 47.6458 109.261 49.0748 110.979C49.8935 111.963 51.0267 112.349 52.3304 112.337C53.7448 112.327 55.3463 111.858 56.9956 111.141C62.1057 108.92 67.6296 104.293 69.5194 102.52C74.5008 97.8516 82.7563 87.8015 88.8226 77.0329ZM73.5861 41.7629C59.0333 44.0313 48.5968 52.5819 38.0784 63.3056C36.291 65.1302 32.0776 69.7364 29.8764 74.2105C29.1666 75.6565 28.6647 77.0843 28.5453 78.397C28.436 79.6151 28.6566 80.727 29.39 81.6278C30.2291 82.6596 31.4082 83.0825 32.7724 83.1035C34.2456 83.1243 35.9219 82.6871 37.6475 81.9972C42.9837 79.8632 48.7563 75.3051 50.591 73.6074C60.224 64.6925 68.0678 53.6855 73.5861 41.7629Z" fill="#B1B7FC" stroke="#B1B7FC" stroke-width="2"/>
</svg>
