<svg width="15" height="15" viewBox="0 0 15 15" fill="none" xmlns="http://www.w3.org/2000/svg">
<path id="Asterisk 1" d="M6.09144 14.6544C6.53994 14.7383 6.98548 14.6729 7.37469 14.4931C7.96042 14.2226 8.41733 13.6933 8.56168 13.0286C8.56227 13.0271 8.56277 13.0255 8.56319 13.0239C8.56356 13.0223 8.56392 13.0208 8.56423 13.0192L8.56469 13.0168C8.56503 13.0152 8.56531 13.0136 8.56562 13.0121L9.06417 10.6335L11.1985 11.7958C11.2007 11.7971 11.2027 11.798 11.2047 11.799C11.2057 11.7995 11.2066 11.8 11.2077 11.8006C12.2093 12.3401 13.4848 11.9717 14.0543 10.977C14.6248 9.98194 14.2761 8.72854 13.2791 8.17899L13.2768 8.17753C13.2749 8.17629 13.2734 8.17539 13.2713 8.17466L11.1394 7.01004L12.9547 5.34933C13.8074 4.56925 13.8692 3.25988 13.092 2.43202C12.315 1.60418 10.9887 1.56459 10.1346 2.34419L8.31812 4.00211L7.30526 1.81209C6.82912 0.784062 5.58672 0.342187 4.5355 0.827809C3.48428 1.31343 3.01535 2.54588 3.48995 3.57575L4.49908 5.76522L2.05914 6.07359C2.0583 6.07398 2.05719 6.07427 2.05602 6.07446C2.05452 6.07473 2.0529 6.07484 2.05159 6.07481C0.907961 6.22262 0.0821714 7.25639 0.208835 8.38249C0.335468 9.50854 1.36702 10.3083 2.51028 10.1697C2.51133 10.1696 2.5123 10.1695 2.51325 10.1695L2.51736 10.1692L2.51921 10.169L4.95947 9.86382L4.46424 12.2421C4.46419 12.2432 4.46392 12.2445 4.46363 12.2457C4.46334 12.247 4.46307 12.2483 4.46302 12.2494C4.23421 13.3653 4.96394 14.4438 6.09144 14.6544Z" fill="#FA9762"/>
</svg>
